<svg id="Layer_2" data-name="Layer 2" xmlns="http://www.w3.org/2000/svg" viewBox="0 0 55.21 39"><defs><style>.cls-1{fill:#fff;}.cls-2{fill:#0087b4;}</style></defs><path class="cls-1" d="M32.2,2.39H7a4.4,4.4,0,0,0-4.4,4.4h0V31.94A4.39,4.39,0,0,0,7,36.34H32.2A4.39,4.39,0,0,0,36.6,32h0V6.79a4.4,4.4,0,0,0-4.4-4.4Z"/><path class="cls-2" d="M7.46,7.86a.67.67,0,0,0,.69-.66V6.05a.71.71,0,0,0-.21-.51.74.74,0,0,0-1,0,.71.71,0,0,0-.21.51V7.17a.76.76,0,0,0,0,.27.63.63,0,0,0,.16.23.61.61,0,0,0,.24.15.45.45,0,0,0,.28,0Z"/><path class="cls-2" d="M10.25,7.86a.66.66,0,0,0,.28,0,.61.61,0,0,0,.24-.15.63.63,0,0,0,.16-.23A.76.76,0,0,0,11,7.21V6.05a.71.71,0,0,0,0-.29.89.89,0,0,0-.14-.25.81.81,0,0,0-.24-.17.89.89,0,0,0-.28-.07.89.89,0,0,0-.28.07.81.81,0,0,0-.24.17.89.89,0,0,0-.14.25.71.71,0,0,0,0,.29V7.17a.67.67,0,0,0,.19.47.6.6,0,0,0,.46.22Z"/><path class="cls-2" d="M13.09,7.86a.63.63,0,0,0,.48-.2.68.68,0,0,0,.2-.49V6.05a.71.71,0,0,0,0-.29.52.52,0,0,0-.14-.25.66.66,0,0,0-.23-.17,1.08,1.08,0,0,0-.31-.07.89.89,0,0,0-.28.07.81.81,0,0,0-.24.17.89.89,0,0,0-.14.25.71.71,0,0,0,0,.29V7.17a.68.68,0,0,0,.67.7h0Z"/><path class="cls-2" d="M17.94,7.32H31.81a.71.71,0,0,0,.29,0,.64.64,0,0,0,.25-.15.66.66,0,0,0,.17-.23.64.64,0,0,0,.06-.28.79.79,0,0,0-.06-.29.91.91,0,0,0-.17-.23.86.86,0,0,0-.26-.2,1.41,1.41,0,0,0-.29,0H17.94a.73.73,0,0,0-.44.23.69.69,0,0,0,0,.93A.63.63,0,0,0,17.94,7.32Z"/><path class="cls-2" d="M2.28,33.82a2.87,2.87,0,0,0,2.84,2.84h29A2.87,2.87,0,0,0,37,33.8V4.94a2.91,2.91,0,0,0-.83-2,2.94,2.94,0,0,0-2-.85h-29a2.94,2.94,0,0,0-2,.85,2.84,2.84,0,0,0-.84,2ZM3.67,4.94a1.44,1.44,0,0,1,.11-.57,1.39,1.39,0,0,1,.31-.52,1.58,1.58,0,0,1,.48-.33,1.8,1.8,0,0,1,.57-.11h29a1.8,1.8,0,0,1,.57.11,1.58,1.58,0,0,1,.48.33,1.39,1.39,0,0,1,.32.48,1.44,1.44,0,0,1,.11.57V33.82a1.48,1.48,0,0,1-1.48,1.48H5.15a1.46,1.46,0,0,1-1.48-1.45V4.94Z"/><path class="cls-2" d="M5.75,33.94H33.48a.72.72,0,0,0,.7-.7V10.52A.71.71,0,0,0,34,10a.7.7,0,0,0-.49-.2H5.75a.7.7,0,0,0-.49.2.71.71,0,0,0-.21.49v22.7a.72.72,0,0,0,.7.7Zm.69-22.71H32.79v21.3H6.44Z"/><path class="cls-2" d="M11.76,25.57H8.93a.7.7,0,0,0-.49.2.75.75,0,0,0-.21.5v3.52a.67.67,0,0,0,.21.49.62.62,0,0,0,.49.2h2.83a.67.67,0,0,0,.69-.66V26.3a.66.66,0,0,0,0-.28.65.65,0,0,0-.15-.23.63.63,0,0,0-.23-.16.82.82,0,0,0-.27-.06Zm-.67,3.52H9.62V26.94h1.47Z"/><path class="cls-2" d="M17.94,21.78H15.09a.78.78,0,0,0-.48.21.71.71,0,0,0-.2.49v7.27a.59.59,0,0,0,.05.27.44.44,0,0,0,.15.22.57.57,0,0,0,.22.16.58.58,0,0,0,.26.05h2.84a.65.65,0,0,0,.27-.05.57.57,0,0,0,.22-.16.57.57,0,0,0,.15-.22.76.76,0,0,0,.05-.27V22.48a.71.71,0,0,0-.2-.49A.84.84,0,0,0,17.94,21.78Zm-.69,7.29H15.8v-5.9h1.45Z"/><path class="cls-2" d="M24.09,19.65h-2.8a.74.74,0,0,0-.49.2.78.78,0,0,0-.21.49v9.41a.72.72,0,0,0,.7.7h2.8a.7.7,0,0,0,.69-.7V20.34a.61.61,0,0,0,0-.27.78.78,0,0,0-.15-.22,1.14,1.14,0,0,0-.23-.15,1.09,1.09,0,0,0-.26-.05Zm-.69,9.42H22v-8h1.44Z"/><path class="cls-2" d="M30.3,16.7H27.47a.75.75,0,0,0-.49.21.7.7,0,0,0-.2.49V29.73a.67.67,0,0,0,.67.69H30.3a.62.62,0,0,0,.49-.2.67.67,0,0,0,.21-.49V17.4A.73.73,0,0,0,30.3,16.7ZM29.61,29H28.17V18.09h1.44Z"/><path class="cls-2" d="M52.93,20.15l-12,10.52V9.58Z"/></svg>