<svg id="Layer_1" data-name="Layer 1" xmlns="http://www.w3.org/2000/svg" viewBox="0 0 55.21 39"><defs><style>.cls-1{fill:#eb8b23;}</style></defs><path class="cls-1" d="M32.17,1.94H6.83A4.66,4.66,0,0,0,2.15,6.6V32.21a4.66,4.66,0,0,0,4.68,4.65H32.17a4.66,4.66,0,0,0,4.68-4.65V6.6a4.66,4.66,0,0,0-4.68-4.66ZM34.51,6.6V8.92h-9V4.27h6.62A2.32,2.32,0,0,1,34.51,6.6ZM15,8.92V4.27h9V8.92Zm9,1.56V34.53H15v-24ZM6.83,4.27h6.62V8.92h-9V6.6A2.32,2.32,0,0,1,6.83,4.27ZM4.49,32.21V10.48h9V34.53H6.83a2.33,2.33,0,0,1-1.66-.68A2.3,2.3,0,0,1,4.49,32.21Zm27.68,2.32H25.55v-24h9V32.21a2.3,2.3,0,0,1-.68,1.64A2.33,2.33,0,0,1,32.17,34.53Zm-26.12-19A.8.8,0,0,1,6.27,15a.83.83,0,0,1,.56-.23h4.28a.83.83,0,0,1,.56.23.77.77,0,0,1,0,1.1.79.79,0,0,1-.56.23H6.83a.79.79,0,0,1-.56-.23A.8.8,0,0,1,6.05,15.52Zm5.85,4.66a.77.77,0,0,1-.79.77H6.83a.75.75,0,0,1-.78-.77.77.77,0,0,1,.78-.78h4.28a.79.79,0,0,1,.79.78Zm0,4.65a.79.79,0,0,1-.79.78H6.83a.77.77,0,0,1-.78-.78.75.75,0,0,1,.78-.77h4.28a.77.77,0,0,1,.79.77Zm0,4.66a.81.81,0,0,1-.23.55.83.83,0,0,1-.56.23H6.83A.83.83,0,0,1,6.27,30a.8.8,0,0,1,0-1.1.83.83,0,0,1,.56-.23h4.28a.83.83,0,0,1,.56.23A.81.81,0,0,1,11.9,29.49Zm4.68-14A.8.8,0,0,1,16.8,15a.83.83,0,0,1,.55-.23h4.3a.83.83,0,0,1,.55.23.8.8,0,0,1,0,1.1.78.78,0,0,1-.55.23h-4.3a.78.78,0,0,1-.55-.23A.8.8,0,0,1,16.58,15.52Zm0,4.66a.77.77,0,0,1,.77-.78h4.3a.77.77,0,0,1,.77.78.75.75,0,0,1-.77.77h-4.3a.75.75,0,0,1-.77-.77Zm0,4.65a.75.75,0,0,1,.77-.77h4.3a.75.75,0,0,1,.77.77.77.77,0,0,1-.77.78h-4.3a.77.77,0,0,1-.77-.78Zm5.84,4.66a.8.8,0,0,1-.22.55.83.83,0,0,1-.55.23h-4.3A.83.83,0,0,1,16.8,30a.8.8,0,0,1,0-1.1.83.83,0,0,1,.55-.23h4.3a.83.83,0,0,1,.55.23A.8.8,0,0,1,22.42,29.49ZM33,15.52a.81.81,0,0,1-.23.55.79.79,0,0,1-.56.23H27.89a.79.79,0,0,1-.56-.23.77.77,0,0,1,0-1.1.83.83,0,0,1,.56-.23h4.28a.83.83,0,0,1,.56.23A.81.81,0,0,1,33,15.52Zm0,4.66a.77.77,0,0,1-.79.77H27.89a.77.77,0,0,1-.79-.77.79.79,0,0,1,.79-.78h4.28a.79.79,0,0,1,.79.78Zm0,4.65a.79.79,0,0,1-.79.78H27.89a.79.79,0,0,1-.79-.78.77.77,0,0,1,.79-.77h4.28a.77.77,0,0,1,.79.77Zm0,4.66a.81.81,0,0,1-.23.55.83.83,0,0,1-.56.23H27.89a.83.83,0,0,1-.56-.23.77.77,0,0,1,0-1.1.83.83,0,0,1,.56-.23h4.28a.83.83,0,0,1,.56.23A.81.81,0,0,1,33,29.49Z"/><path class="cls-1" d="M52.84,20.2l-12,10.52,0-21.09Z"/></svg>