<svg width="38" height="39" viewBox="0 0 38 39" fill="none" xmlns="http://www.w3.org/2000/svg">
<path d="M31.4747 2.4762H6.56013C4.15118 2.4762 2.19833 4.42801 2.19833 6.83569V31.7371C2.19833 34.1448 4.15118 36.0966 6.56013 36.0966H31.4747C33.8837 36.0966 35.8365 34.1448 35.8365 31.7371V6.83569C35.8365 4.42801 33.8837 2.4762 31.4747 2.4762Z" fill="white"/>
<path d="M6.97888 7.89938C7.16166 7.89938 7.33695 7.82681 7.46619 7.69764C7.59544 7.56846 7.66805 7.39326 7.66805 7.21058V6.10327C7.66805 5.91597 7.5936 5.73633 7.46108 5.60389C7.32857 5.47144 7.14884 5.39703 6.96143 5.39703C6.77403 5.39703 6.5943 5.47144 6.46178 5.60389C6.32927 5.73633 6.25482 5.91597 6.25482 6.10327V7.21058C6.2547 7.30405 6.27362 7.39656 6.31041 7.48249C6.34721 7.56841 6.40111 7.64596 6.46885 7.7104C6.53659 7.77483 6.61674 7.82482 6.70442 7.85731C6.7921 7.8898 6.88549 7.90412 6.97888 7.89938V7.89938Z" fill="#0087B4"/>
<path d="M9.74427 7.89938C9.83766 7.90411 9.93105 7.8898 10.0187 7.85731C10.1064 7.82482 10.1866 7.77483 10.2543 7.71039C10.322 7.64595 10.3759 7.56841 10.4127 7.48248C10.4495 7.39656 10.4684 7.30405 10.4683 7.21058V6.10327C10.4792 6.0069 10.4696 5.90932 10.4402 5.81691C10.4108 5.72449 10.3621 5.63934 10.2975 5.56701C10.2328 5.49469 10.1536 5.43682 10.0651 5.3972C9.9765 5.35758 9.88056 5.3371 9.78353 5.3371C9.68649 5.3371 9.59055 5.35758 9.50198 5.3972C9.41341 5.43682 9.33422 5.49469 9.26957 5.56701C9.20492 5.63934 9.15629 5.72449 9.12685 5.81691C9.09741 5.90932 9.08782 6.0069 9.09872 6.10327V7.21058C9.09837 7.38595 9.16496 7.55485 9.28492 7.68285C9.40487 7.81084 9.56915 7.88828 9.74427 7.89938V7.89938Z" fill="#0087B4"/>
<path d="M12.562 7.89938C12.7433 7.89709 12.9163 7.82351 13.0437 7.69458C13.171 7.56565 13.2425 7.39176 13.2424 7.21058V6.10327C13.2533 6.0069 13.2438 5.90932 13.2143 5.81691C13.1849 5.72449 13.1362 5.63934 13.0716 5.56701C13.0069 5.49469 12.9277 5.43682 12.8392 5.3972C12.7506 5.35758 12.6547 5.3371 12.5576 5.3371C12.4606 5.3371 12.3647 5.35758 12.2761 5.3972C12.1875 5.43682 12.1083 5.49469 12.0437 5.56701C11.979 5.63934 11.9304 5.72449 11.901 5.81691C11.8715 5.90932 11.8619 6.0069 11.8728 6.10327V7.21058C11.8728 7.39326 11.9454 7.56846 12.0747 7.69764C12.2039 7.82681 12.3792 7.89938 12.562 7.89938V7.89938Z" fill="#0087B4"/>
<path d="M17.36 7.35884H31.0909C31.1873 7.36973 31.285 7.36015 31.3774 7.33073C31.4699 7.3013 31.5551 7.25269 31.6275 7.18808C31.6998 7.12347 31.7577 7.04431 31.7974 6.95579C31.837 6.86727 31.8575 6.77138 31.8575 6.6744C31.8575 6.57741 31.837 6.48152 31.7974 6.393C31.7577 6.30448 31.6998 6.22532 31.6275 6.16071C31.5551 6.0961 31.4699 6.04749 31.3774 6.01807C31.285 5.98864 31.1873 5.97906 31.0909 5.98996H17.36C17.1917 6.00897 17.0363 6.08927 16.9234 6.21551C16.8106 6.34176 16.7482 6.50511 16.7482 6.6744C16.7482 6.84368 16.8106 7.00703 16.9234 7.13328C17.0363 7.25953 17.1917 7.33982 17.36 7.35884Z" fill="#0087B4"/>
<path d="M1.8494 33.603C1.8517 34.3553 2.15235 35.076 2.68543 35.6072C3.21851 36.1384 3.94055 36.4366 4.69329 36.4366H33.3416C34.0928 36.4343 34.8126 36.135 35.3438 35.6041C35.875 35.0732 36.1745 34.3538 36.1768 33.603V4.96983C36.1768 4.21749 35.8783 3.49583 35.3469 2.96303C34.8154 2.43023 34.0943 2.12975 33.3416 2.12744H4.69329C3.93975 2.12974 3.21773 2.42994 2.68489 2.9625C2.15206 3.49505 1.8517 4.21669 1.8494 4.96983V33.603ZM3.22772 4.96983C3.22542 4.77601 3.26162 4.58366 3.33424 4.40392C3.40685 4.22419 3.51444 4.06065 3.65076 3.92278C3.78708 3.78491 3.94943 3.67545 4.12838 3.60075C4.30734 3.52605 4.49935 3.48759 4.69329 3.4876H33.3416C33.5355 3.48759 33.7275 3.52605 33.9065 3.60075C34.0855 3.67545 34.2478 3.78491 34.3841 3.92278C34.5204 4.06065 34.628 4.22419 34.7006 4.40392C34.7733 4.58366 34.8095 4.77601 34.8072 4.96983V33.603C34.8049 33.9907 34.6497 34.362 34.3754 34.6362C34.101 34.9104 33.7296 35.0655 33.3416 35.0677H4.69329C4.3046 35.0677 3.93183 34.9134 3.65698 34.6387C3.38213 34.364 3.22772 33.9914 3.22772 33.603V4.96983Z" fill="#0087B4"/>
<path d="M5.28652 33.6989H32.7484C32.9305 33.6966 33.1045 33.6233 33.2332 33.4946C33.362 33.366 33.4353 33.1921 33.4376 33.0101V10.5325C33.4376 10.3499 33.365 10.1747 33.2357 10.0455C33.1065 9.91632 32.9312 9.84375 32.7484 9.84375H5.28652C5.10374 9.84375 4.92845 9.91632 4.7992 10.0455C4.66996 10.1747 4.59735 10.3499 4.59735 10.5325V33.0101C4.59735 33.1928 4.66996 33.368 4.7992 33.4971C4.92845 33.6263 5.10374 33.6989 5.28652 33.6989V33.6989ZM5.97568 11.2126H32.0592V32.3213H5.97568V11.2126Z" fill="#0087B4"/>
<path d="M11.236 25.4333H8.43572C8.25294 25.4333 8.07765 25.5059 7.9484 25.635C7.81916 25.7642 7.74655 25.9394 7.74655 26.1221V29.6097C7.74655 29.7924 7.81916 29.9676 7.9484 30.0967C8.07765 30.2259 8.25294 30.2985 8.43572 30.2985H11.236C11.4188 30.2985 11.5941 30.2259 11.7233 30.0967C11.8525 29.9676 11.9252 29.7924 11.9252 29.6097V26.157C11.9299 26.0636 11.9156 25.9703 11.8831 25.8827C11.8506 25.795 11.8005 25.7149 11.7361 25.6472C11.6716 25.5795 11.594 25.5256 11.508 25.4888C11.4221 25.4521 11.3295 25.4332 11.236 25.4333V25.4333ZM10.5468 28.9209H9.11616V26.8283H10.5468V28.9209Z" fill="#0087B4"/>
<path d="M17.36 21.6841H14.551C14.3697 21.6864 14.1967 21.76 14.0693 21.8889C13.9419 22.0178 13.8705 22.1917 13.8705 22.3729V29.5748C13.8694 29.6648 13.8861 29.7542 13.9198 29.8377C13.9535 29.9212 14.0034 29.9972 14.0667 30.0613C14.13 30.1254 14.2054 30.1762 14.2886 30.211C14.3717 30.2457 14.4609 30.2636 14.551 30.2636H17.36C17.4501 30.2636 17.5393 30.2457 17.6224 30.211C17.7055 30.1762 17.7809 30.1254 17.8442 30.0613C17.9075 29.9972 17.9575 29.9212 17.9912 29.8377C18.0248 29.7542 18.0416 29.6648 18.0404 29.5748V22.3729C18.0404 22.1917 17.969 22.0178 17.8417 21.8889C17.7143 21.76 17.5412 21.6864 17.36 21.6841ZM16.6708 28.8947H15.2401V23.0617H16.6708V28.8947Z" fill="#0087B4"/>
<path d="M23.4752 19.5741H20.6749C20.4937 19.5741 20.3197 19.6454 20.1907 19.7727C20.0617 19.9 19.9881 20.073 19.9858 20.2542V29.5748C19.9858 29.7574 20.0584 29.9326 20.1876 30.0618C20.3169 30.191 20.4922 30.2636 20.6749 30.2636H23.4752C23.658 30.2636 23.8333 30.191 23.9625 30.0618C24.0918 29.9326 24.1644 29.7574 24.1644 29.5748V20.2542C24.1644 20.1641 24.1465 20.075 24.1118 19.9919C24.077 19.9088 24.0261 19.8334 23.962 19.7702C23.8979 19.7069 23.8219 19.657 23.7383 19.6233C23.6547 19.5897 23.5653 19.5729 23.4752 19.5741V19.5741ZM22.7948 28.8947H21.3641V20.9255H22.7948V28.8947Z" fill="#0087B4"/>
<path d="M29.5992 16.6533H26.7989C26.6161 16.6533 26.4408 16.7258 26.3116 16.855C26.1823 16.9842 26.1097 17.1594 26.1097 17.3421V29.5486C26.1097 29.7313 26.1823 29.9065 26.3116 30.0357C26.4408 30.1649 26.6161 30.2374 26.7989 30.2374H29.5992C29.782 30.2374 29.9572 30.1649 30.0865 30.0357C30.2157 29.9065 30.2883 29.7313 30.2883 29.5486V17.3421C30.2883 17.1594 30.2157 16.9842 30.0865 16.855C29.9572 16.7258 29.782 16.6533 29.5992 16.6533V16.6533ZM28.91 28.8598H27.4881V18.0309H28.91V28.8598Z" fill="#0087B4"/>
</svg>
