<svg width="169" height="66" viewBox="0 0 169 66" fill="none" xmlns="http://www.w3.org/2000/svg">
<g clip-path="url(#clip0)">
<path d="M26.8097 54.9782C27.4557 55.3795 28.212 55.5726 28.974 55.5307C29.4225 55.5301 29.8686 55.4665 30.299 55.3417C30.7214 55.2413 31.1312 55.095 31.521 54.9055C31.6897 55.1118 31.8423 55.3305 31.9774 55.5598C32.1175 55.8295 32.1883 56.1291 32.1835 56.4323C32.1762 56.7572 32.0809 57.0743 31.9074 57.3505C31.7339 57.6267 31.4886 57.8519 31.1971 58.0026C30.2902 58.4672 29.272 58.6784 28.2526 58.6134C26.6846 58.6948 25.1329 58.2657 23.8358 57.3919C23.2502 56.8977 22.7953 56.27 22.5106 55.5632C22.2258 54.8563 22.1198 54.0916 22.2016 53.3351V36.4098L22.9377 36.2208C23.2763 36.1488 23.622 36.1147 23.9683 36.119C24.5228 36.0754 25.0764 36.2134 25.5436 36.5116C25.7211 36.6872 25.8568 36.8997 25.9409 37.1336C26.0249 37.3675 26.0551 37.617 26.0294 37.8639V41.4554H31.7418C31.8596 41.6522 31.9535 41.8621 32.0215 42.0806C32.0987 42.3503 32.1384 42.6292 32.1393 42.9095C32.1393 43.9564 31.6829 44.4798 30.7848 44.4798H26.0294V53.2042C26.0067 53.54 26.0657 53.8762 26.2015 54.1848C26.3372 54.4934 26.5458 54.7655 26.8097 54.9782Z" fill="#EB8B23"/>
<path d="M39.9422 58.0317C39.7146 58.1241 39.4778 58.1923 39.2356 58.2353C38.9005 58.2958 38.5603 58.325 38.2197 58.3225C37.6607 58.364 37.1031 58.2263 36.6297 57.9299C36.4451 57.7582 36.3028 57.5471 36.2134 57.3127C36.1241 57.0784 36.0903 56.8269 36.1144 56.5777V44.6107C36.0998 44.1019 36.2272 43.5989 36.4824 43.1566C36.7987 42.7242 37.1991 42.3584 37.6602 42.0806C38.5078 41.6019 39.4199 41.2445 40.3692 41.0192C41.5619 40.7178 42.7893 40.5712 44.0204 40.5829C46.1699 40.5829 47.2593 41.1937 47.2593 42.4005C47.2572 42.6782 47.2074 42.9535 47.1121 43.2148C47.0231 43.4534 46.9096 43.6824 46.7735 43.8982C46.4724 43.8322 46.1676 43.7837 45.8607 43.7528C45.4687 43.7225 45.0749 43.7225 44.6829 43.7528C43.7755 43.7437 42.8704 43.8462 41.9887 44.0582C41.2695 44.2287 40.5764 44.4928 39.9275 44.8434L39.9422 58.0317Z" fill="#EB8B23"/>
<path d="M53.0159 51.5321C53.2838 52.7798 54.027 53.8782 55.0917 54.6001C56.2308 55.3076 57.5603 55.6575 58.9049 55.6034C59.8689 55.615 60.8269 55.4524 61.7316 55.1236C62.4629 54.8799 63.1565 54.5373 63.7927 54.1057C64.1047 54.2548 64.3673 54.4884 64.5498 54.7794C64.7323 55.0703 64.8272 55.4066 64.8233 55.7488C64.8145 56.1716 64.6465 56.5759 64.3522 56.883C63.9839 57.2741 63.5378 57.586 63.0419 57.7991C62.4195 58.0711 61.7674 58.2711 61.0985 58.3952C60.3027 58.5445 59.4941 58.6175 58.684 58.6134C57.3648 58.6324 56.0516 58.4358 54.7973 58.0317C53.698 57.6706 52.6927 57.0749 51.8528 56.2868C50.9999 55.4704 50.3411 54.4771 49.9241 53.3787C49.4475 52.1094 49.2178 50.7626 49.2469 49.4091C49.2213 48.0998 49.4461 46.7974 49.9094 45.5704C50.312 44.5386 50.9231 43.5986 51.7055 42.8077C52.48 42.0727 53.3963 41.4991 54.3998 41.121C55.4598 40.7327 56.5818 40.5357 57.7123 40.5393C58.8137 40.5258 59.9077 40.7182 60.9366 41.1064C61.862 41.4659 62.711 41.9936 63.4394 42.6623C64.1381 43.3398 64.6892 44.1513 65.0589 45.0469C65.4361 46.0114 65.6259 47.0375 65.6183 48.0714C65.639 48.31 65.6104 48.5502 65.5345 48.7776C65.4586 49.005 65.3369 49.2149 65.1767 49.3946C64.8141 49.7018 64.3692 49.8988 63.8958 49.9617L53.0159 51.5321ZM57.5798 43.5347C56.9552 43.5187 56.3338 43.6291 55.754 43.8591C55.1742 44.0892 54.6482 44.434 54.2084 44.8724C53.2278 45.9182 52.6996 47.3009 52.7361 48.7257L61.8494 47.5188C61.8003 46.4379 61.3677 45.4084 60.6274 44.6107C60.2253 44.2288 59.7458 43.9354 59.2205 43.7499C58.6951 43.5644 58.136 43.4911 57.5798 43.5347Z" fill="#EB8B23"/>
<path d="M75.8358 40.583C77.762 40.4822 79.6705 40.9916 81.2831 42.037C81.9759 42.5899 82.5216 43.3013 82.8731 44.1096C83.2246 44.9179 83.3711 45.7986 83.3001 46.6755V55.1527C83.3356 55.6111 83.1994 56.0665 82.9173 56.4323C82.6218 56.7758 82.2681 57.0661 81.872 57.2902C81.0927 57.7101 80.2612 58.0279 79.3986 58.2353C78.2595 58.5258 77.0857 58.6628 75.9094 58.6424C73.9506 58.7515 72.0046 58.2697 70.3296 57.2611C69.6774 56.8065 69.1529 56.1958 68.8053 55.4862C68.4576 54.7766 68.2982 53.9914 68.342 53.2042C68.2989 52.5139 68.4173 51.823 68.6879 51.1851C68.9585 50.5472 69.3741 49.9793 69.9026 49.5255C71.2174 48.5818 72.784 48.0408 74.4077 47.9696L79.5164 47.5188V46.7191C79.5554 46.2742 79.4784 45.8269 79.2928 45.4197C79.1073 45.0124 78.8194 44.6589 78.4564 44.3926C77.5775 43.8487 76.5465 43.5942 75.5119 43.6656C74.5507 43.6624 73.5939 43.7946 72.6704 44.0582C71.8383 44.3022 71.0262 44.6084 70.2412 44.9742C69.9974 44.7714 69.7886 44.5307 69.6229 44.2617C69.4453 43.9834 69.3532 43.6601 69.3579 43.3311C69.3435 42.9651 69.4579 42.6054 69.6818 42.3133C69.9431 42.0093 70.2771 41.7744 70.6534 41.6299C71.3962 41.2636 72.1901 41.0087 73.0091 40.8738C73.9414 40.6988 74.887 40.6015 75.8358 40.583ZM75.8358 55.6761C76.5902 55.6885 77.3429 55.6005 78.0736 55.4144C78.5578 55.3137 79.0209 55.1317 79.4428 54.8764V50.2525L75.4236 50.6596C74.5317 50.7042 73.6636 50.9585 72.8913 51.4012C72.6073 51.5898 72.3788 51.8492 72.2288 52.153C72.0789 52.4568 72.0128 52.7944 72.0374 53.1315C72.0207 53.4938 72.0969 53.8544 72.2591 54.1798C72.4212 54.5052 72.664 54.7848 72.9649 54.9927C73.8457 55.529 74.8789 55.7688 75.9094 55.6761H75.8358Z" fill="#EB8B23"/>
<path d="M95.9615 40.5829C96.6649 40.5844 97.366 40.6624 98.0521 40.8156C98.6424 40.9565 99.2151 41.1613 99.7599 41.4263V34.5195C100.002 34.4435 100.247 34.3804 100.496 34.3305C100.834 34.2578 101.18 34.2236 101.527 34.2287C102.081 34.1873 102.634 34.3251 103.102 34.6213C103.289 34.7909 103.433 35.0018 103.523 35.2367C103.613 35.4716 103.645 35.724 103.617 35.9736V55.0218C103.637 55.4611 103.524 55.8962 103.293 56.2723C103.014 56.6458 102.664 56.962 102.263 57.2029C101.544 57.6263 100.772 57.9539 99.966 58.1771C98.8796 58.4831 97.7536 58.6301 96.624 58.6134C95.3288 58.6271 94.0388 58.4507 92.7961 58.0899C91.7011 57.77 90.6942 57.2081 89.8516 56.4468C89.017 55.6725 88.3768 54.7166 87.9819 53.655C87.5152 52.3784 87.2906 51.0278 87.3194 49.6709C87.286 48.2791 87.5156 46.8935 87.9966 45.5849C88.3895 44.4919 89.023 43.4987 89.8516 42.6768C90.6406 41.942 91.5792 41.3819 92.6048 41.0337C93.6908 40.7016 94.8251 40.5493 95.9615 40.5829ZM99.7894 44.6107C99.3301 44.3181 98.8355 44.0836 98.3171 43.9128C97.7142 43.7151 97.0825 43.6169 96.4473 43.6219C95.7509 43.6171 95.0587 43.7302 94.4009 43.9564C93.774 44.168 93.2118 44.5332 92.7667 45.0178C92.2707 45.5661 91.8948 46.2096 91.6625 46.9081C91.3651 47.8088 91.2257 48.7529 91.2503 49.6999C91.1793 50.4991 91.2732 51.3041 91.5263 52.0664C91.7793 52.8286 92.1863 53.5323 92.7225 54.1348C93.7817 55.0855 95.1796 55.5823 96.6093 55.5162C97.2368 55.5289 97.8626 55.4455 98.4643 55.269C98.9312 55.1372 99.3809 54.9517 99.8041 54.7165L99.7894 44.6107Z" fill="#EB8B23"/>
<path d="M120.033 46.3265C119.738 47.4025 119.429 48.464 119.105 49.54C118.781 50.616 118.428 51.6775 118.104 52.6953C117.78 53.7132 117.456 54.6583 117.147 55.5307C116.838 56.4032 116.558 57.1593 116.323 57.8136C116.052 57.995 115.754 58.1325 115.439 58.2208C115.015 58.3214 114.58 58.3702 114.144 58.3662C113.641 58.3707 113.141 58.2819 112.672 58.1044C112.476 58.0397 112.296 57.9351 112.144 57.7973C111.992 57.6596 111.87 57.4917 111.788 57.3047C111.368 56.4034 111.024 55.4697 110.758 54.5129C110.36 53.2188 109.963 51.8229 109.58 50.2961C109.197 48.7693 108.8 47.228 108.431 45.6722C108.063 44.1163 107.769 42.764 107.548 41.6008C107.787 41.3513 108.072 41.1489 108.387 41.0046C108.755 40.8147 109.165 40.7196 109.58 40.7284C110.684 40.7284 111.347 41.3536 111.567 42.5896C111.788 43.8255 112.024 45.076 112.274 46.3265C112.524 47.577 112.789 48.7693 113.04 49.8744C113.29 50.9795 113.511 51.9537 113.717 52.7826C113.923 53.6114 114.085 54.2366 114.173 54.731H114.32L114.895 52.8262C115.145 51.9828 115.454 51.0377 115.778 49.918C116.102 48.7984 116.47 47.6788 116.867 46.4283C117.265 45.1778 117.663 43.9418 118.075 42.7059C118.692 42.3557 119.395 42.1796 120.106 42.197C120.614 42.1747 121.119 42.2745 121.579 42.4878C121.754 42.5722 121.911 42.6902 122.04 42.835C122.169 42.9798 122.267 43.1484 122.33 43.3311C122.722 44.5429 123.105 45.7352 123.478 46.9081C123.846 48.0859 124.185 49.1765 124.479 50.1943L125.304 52.8843C125.524 53.6695 125.701 54.3384 125.834 54.7019H126.01C126.511 52.6226 127.026 50.4124 127.482 48.0859C127.939 45.7594 128.484 43.4329 128.852 41.1064C129.112 40.9824 129.383 40.8803 129.661 40.8011C129.948 40.715 130.245 40.6709 130.545 40.6702C131.009 40.655 131.467 40.782 131.855 41.0337C132.019 41.1793 132.148 41.3594 132.232 41.5607C132.316 41.7621 132.353 41.9795 132.341 42.197C132.313 42.7353 132.239 43.2704 132.12 43.7964C131.973 44.5525 131.767 45.425 131.516 46.4283C131.266 47.4316 130.972 48.5076 130.663 49.6272C130.353 50.7469 130.059 51.852 129.75 52.8843C129.441 53.9167 129.146 54.8909 128.852 55.7925C128.557 56.694 128.307 57.3338 128.116 57.7845C127.846 57.9606 127.547 58.0885 127.232 58.1626C126.801 58.2834 126.355 58.3422 125.907 58.3371C124.597 58.3371 123.846 58.0317 123.625 57.421C123.404 56.8103 123.139 56.1269 122.845 55.2835C122.55 54.4402 122.241 53.5096 121.932 52.5354C121.623 51.5611 121.284 50.5288 120.975 49.4673C120.666 48.4058 120.327 47.3734 120.033 46.3265Z" fill="#EB8B23"/>
<path d="M139.01 51.5321C139.265 52.7662 139.98 53.8611 141.012 54.6001C142.152 55.3076 143.481 55.6575 144.826 55.6034C145.794 55.6136 146.757 55.451 147.667 55.1236C148.397 54.8767 149.09 54.5344 149.728 54.1057C150.038 54.2575 150.299 54.4918 150.481 54.7822C150.663 55.0725 150.759 55.4073 150.759 55.7488C150.752 56.1748 150.578 56.5815 150.273 56.883C149.907 57.2707 149.467 57.5822 148.977 57.7991C148.35 58.0704 147.693 58.2705 147.019 58.3952C146.224 58.5452 145.415 58.6183 144.605 58.6134C143.286 58.6302 141.973 58.4338 140.718 58.0317C139.616 57.676 138.61 57.0796 137.773 56.2868C136.911 55.4754 136.246 54.481 135.83 53.3787C135.361 52.1075 135.131 50.7621 135.153 49.4091C135.127 48.0998 135.352 46.7974 135.815 45.5704C136.197 44.5579 136.783 43.6327 137.538 42.8513C138.305 42.1135 139.217 41.5393 140.217 41.1646C141.277 40.7763 142.399 40.5793 143.53 40.5829C144.631 40.5694 145.725 40.7618 146.754 41.15C147.683 41.5024 148.534 42.0309 149.257 42.7059C149.956 43.3835 150.507 44.195 150.877 45.0906C151.266 46.0521 151.461 47.0795 151.451 48.115C151.471 48.3536 151.443 48.5938 151.367 48.8212C151.291 49.0486 151.169 49.2585 151.009 49.4382C150.641 49.7459 150.191 49.9427 149.713 50.0053L139.01 51.5321ZM143.574 43.5347C142.95 43.5187 142.328 43.6291 141.748 43.8591C141.169 44.0892 140.643 44.434 140.203 44.8724C139.234 45.9254 138.708 47.3032 138.73 48.7257L147.844 47.5188C147.766 46.4816 147.342 45.4994 146.636 44.727C146.235 44.3169 145.747 43.9979 145.209 43.792C144.67 43.5862 144.092 43.4984 143.515 43.5347H143.574Z" fill="#EB8B23"/>
<path d="M157.723 58.3225C157.168 58.364 156.615 58.2262 156.147 57.9299C155.96 57.7603 155.816 57.5495 155.726 57.3145C155.637 57.0796 155.604 56.8272 155.632 56.5777V34.5195C155.874 34.4435 156.119 34.3804 156.368 34.3305C156.707 34.2578 157.052 34.2236 157.399 34.2287C157.953 34.1873 158.506 34.3251 158.974 34.6213C159.161 34.7909 159.305 35.0018 159.395 35.2367C159.485 35.4716 159.517 35.724 159.489 35.9736V58.0317C159.246 58.1213 158.994 58.1894 158.738 58.2353C158.403 58.2958 158.063 58.325 157.723 58.3225Z" fill="#EB8B23"/>
<path d="M167.219 58.3225C166.664 58.364 166.111 58.2262 165.643 57.9299C165.456 57.7603 165.312 57.5495 165.222 57.3145C165.133 57.0796 165.1 56.8272 165.128 56.5777V34.5195C165.37 34.4435 165.615 34.3804 165.864 34.3305C166.203 34.2578 166.548 34.2236 166.895 34.2287C167.449 34.1873 168.002 34.3251 168.47 34.6213C168.657 34.7909 168.802 35.0018 168.891 35.2367C168.981 35.4716 169.013 35.724 168.985 35.9736V58.0317C168.742 58.1213 168.49 58.1894 168.234 58.2353C167.899 58.2958 167.559 58.325 167.219 58.3225Z" fill="#EB8B23"/>
<path d="M10.9247 0C10.9247 0 21.7458 15.7039 5.38907 32.8619C-8.52373 47.5188 8.68692 64.6768 10.1297 66C8.14187 61.5955 7.26676 56.7801 7.57963 51.9677C7.8925 47.1554 9.38398 42.49 11.9259 38.3728C18.448 28.0053 33.2883 21.8982 26.5601 11.9233C21.0244 3.73695 10.9247 0 10.9247 0Z" fill="#07A9E2"/>
</g>
<defs>
<clipPath id="clip0">
<rect width="169" height="66" fill="white"/>
</clipPath>
</defs>
</svg>
