<svg width="39" height="39" viewBox="0 0 39 39" fill="none" xmlns="http://www.w3.org/2000/svg">
<path d="M32.175 1.94012H6.82502C5.58381 1.94012 4.39343 2.43069 3.51576 3.30391C2.63809 4.17713 2.14502 5.36146 2.14502 6.59638V32.2058C2.14502 33.4407 2.63809 34.625 3.51576 35.4982C4.39343 36.3715 5.58381 36.862 6.82502 36.862H32.175C33.4162 36.862 34.6066 36.3715 35.4843 35.4982C36.3619 34.625 36.855 33.4407 36.855 32.2058V6.59638C36.855 5.36146 36.3619 4.17713 35.4843 3.30391C34.6066 2.43069 33.4162 1.94012 32.175 1.94012V1.94012ZM34.515 6.59638V8.9245H25.545V4.26825H32.175C32.7956 4.26825 33.3908 4.51354 33.8296 4.95014C34.2685 5.38675 34.515 5.97892 34.515 6.59638ZM15.015 8.9245V4.26825H23.985V8.9245H15.015ZM23.985 10.4766V34.5339H15.015V10.4766H23.985ZM6.82502 4.26825H13.455V8.9245H4.48502V6.59638C4.48502 5.97892 4.73155 5.38675 5.17039 4.95014C5.60922 4.51354 6.20441 4.26825 6.82502 4.26825V4.26825ZM4.48502 32.2058V10.4766H13.455V34.5339H6.82502C6.20441 34.5339 5.60922 34.2886 5.17039 33.852C4.73155 33.4154 4.48502 32.8232 4.48502 32.2058ZM32.175 34.5339H25.545V10.4766H34.515V32.2058C34.515 32.8232 34.2685 33.4154 33.8296 33.852C33.3908 34.2886 32.7956 34.5339 32.175 34.5339ZM6.04502 15.5209C6.04502 15.315 6.1272 15.1177 6.27348 14.9721C6.41975 14.8266 6.61815 14.7448 6.82502 14.7448H11.115C11.3219 14.7448 11.5203 14.8266 11.6666 14.9721C11.8128 15.1177 11.895 15.315 11.895 15.5209C11.895 15.7267 11.8128 15.9241 11.6666 16.0696C11.5203 16.2151 11.3219 16.2969 11.115 16.2969H6.82502C6.61815 16.2969 6.41975 16.2151 6.27348 16.0696C6.1272 15.9241 6.04502 15.7267 6.04502 15.5209ZM11.895 20.1771C11.895 20.3829 11.8128 20.5803 11.6666 20.7259C11.5203 20.8714 11.3219 20.9532 11.115 20.9532H6.82502C6.61815 20.9532 6.41975 20.8714 6.27348 20.7259C6.1272 20.5803 6.04502 20.3829 6.04502 20.1771C6.04502 19.9713 6.1272 19.7739 6.27348 19.6284C6.41975 19.4828 6.61815 19.4011 6.82502 19.4011H11.115C11.3219 19.4011 11.5203 19.4828 11.6666 19.6284C11.8128 19.7739 11.895 19.9713 11.895 20.1771ZM11.895 24.8334C11.895 25.0392 11.8128 25.2366 11.6666 25.3821C11.5203 25.5276 11.3219 25.6094 11.115 25.6094H6.82502C6.61815 25.6094 6.41975 25.5276 6.27348 25.3821C6.1272 25.2366 6.04502 25.0392 6.04502 24.8334C6.04502 24.6275 6.1272 24.4302 6.27348 24.2846C6.41975 24.1391 6.61815 24.0573 6.82502 24.0573H11.115C11.3219 24.0573 11.5203 24.1391 11.6666 24.2846C11.8128 24.4302 11.895 24.6275 11.895 24.8334ZM11.895 29.4896C11.895 29.6954 11.8128 29.8928 11.6666 30.0384C11.5203 30.1839 11.3219 30.2657 11.115 30.2657H6.82502C6.61815 30.2657 6.41975 30.1839 6.27348 30.0384C6.1272 29.8928 6.04502 29.6954 6.04502 29.4896C6.04502 29.2838 6.1272 29.0864 6.27348 28.9409C6.41975 28.7953 6.61815 28.7136 6.82502 28.7136H11.115C11.3219 28.7136 11.5203 28.7953 11.6666 28.9409C11.8128 29.0864 11.895 29.2838 11.895 29.4896ZM16.575 15.5209C16.575 15.315 16.6572 15.1177 16.8035 14.9721C16.9498 14.8266 17.1482 14.7448 17.355 14.7448H21.645C21.8519 14.7448 22.0503 14.8266 22.1966 14.9721C22.3428 15.1177 22.425 15.315 22.425 15.5209C22.425 15.7267 22.3428 15.9241 22.1966 16.0696C22.0503 16.2151 21.8519 16.2969 21.645 16.2969H17.355C17.1482 16.2969 16.9498 16.2151 16.8035 16.0696C16.6572 15.9241 16.575 15.7267 16.575 15.5209ZM16.575 20.1771C16.575 19.9713 16.6572 19.7739 16.8035 19.6284C16.9498 19.4828 17.1482 19.4011 17.355 19.4011H21.645C21.8519 19.4011 22.0503 19.4828 22.1966 19.6284C22.3428 19.7739 22.425 19.9713 22.425 20.1771C22.425 20.3829 22.3428 20.5803 22.1966 20.7259C22.0503 20.8714 21.8519 20.9532 21.645 20.9532H17.355C17.1482 20.9532 16.9498 20.8714 16.8035 20.7259C16.6572 20.5803 16.575 20.3829 16.575 20.1771ZM16.575 24.8334C16.575 24.6275 16.6572 24.4302 16.8035 24.2846C16.9498 24.1391 17.1482 24.0573 17.355 24.0573H21.645C21.8519 24.0573 22.0503 24.1391 22.1966 24.2846C22.3428 24.4302 22.425 24.6275 22.425 24.8334C22.425 25.0392 22.3428 25.2366 22.1966 25.3821C22.0503 25.5276 21.8519 25.6094 21.645 25.6094H17.355C17.1482 25.6094 16.9498 25.5276 16.8035 25.3821C16.6572 25.2366 16.575 25.0392 16.575 24.8334ZM22.425 29.4896C22.425 29.6954 22.3428 29.8928 22.1966 30.0384C22.0503 30.1839 21.8519 30.2657 21.645 30.2657H17.355C17.1482 30.2657 16.9498 30.1839 16.8035 30.0384C16.6572 29.8928 16.575 29.6954 16.575 29.4896C16.575 29.2838 16.6572 29.0864 16.8035 28.9409C16.9498 28.7953 17.1482 28.7136 17.355 28.7136H21.645C21.8519 28.7136 22.0503 28.7953 22.1966 28.9409C22.3428 29.0864 22.425 29.2838 22.425 29.4896ZM32.955 15.5209C32.955 15.7267 32.8728 15.9241 32.7266 16.0696C32.5803 16.2151 32.3819 16.2969 32.175 16.2969H27.885C27.6781 16.2969 27.4798 16.2151 27.3335 16.0696C27.1872 15.9241 27.105 15.7267 27.105 15.5209C27.105 15.315 27.1872 15.1177 27.3335 14.9721C27.4798 14.8266 27.6781 14.7448 27.885 14.7448H32.175C32.3819 14.7448 32.5803 14.8266 32.7266 14.9721C32.8728 15.1177 32.955 15.315 32.955 15.5209ZM32.955 20.1771C32.955 20.3829 32.8728 20.5803 32.7266 20.7259C32.5803 20.8714 32.3819 20.9532 32.175 20.9532H27.885C27.6781 20.9532 27.4798 20.8714 27.3335 20.7259C27.1872 20.5803 27.105 20.3829 27.105 20.1771C27.105 19.9713 27.1872 19.7739 27.3335 19.6284C27.4798 19.4828 27.6781 19.4011 27.885 19.4011H32.175C32.3819 19.4011 32.5803 19.4828 32.7266 19.6284C32.8728 19.7739 32.955 19.9713 32.955 20.1771ZM32.955 24.8334C32.955 25.0392 32.8728 25.2366 32.7266 25.3821C32.5803 25.5276 32.3819 25.6094 32.175 25.6094H27.885C27.6781 25.6094 27.4798 25.5276 27.3335 25.3821C27.1872 25.2366 27.105 25.0392 27.105 24.8334C27.105 24.6275 27.1872 24.4302 27.3335 24.2846C27.4798 24.1391 27.6781 24.0573 27.885 24.0573H32.175C32.3819 24.0573 32.5803 24.1391 32.7266 24.2846C32.8728 24.4302 32.955 24.6275 32.955 24.8334ZM32.955 29.4896C32.955 29.6954 32.8728 29.8928 32.7266 30.0384C32.5803 30.1839 32.3819 30.2657 32.175 30.2657H27.885C27.6781 30.2657 27.4798 30.1839 27.3335 30.0384C27.1872 29.8928 27.105 29.6954 27.105 29.4896C27.105 29.2838 27.1872 29.0864 27.3335 28.9409C27.4798 28.7953 27.6781 28.7136 27.885 28.7136H32.175C32.3819 28.7136 32.5803 28.7953 32.7266 28.9409C32.8728 29.0864 32.955 29.2838 32.955 29.4896Z" fill="#EB8B23"/>
</svg>
